<svg id="visual" viewBox="0 0 900 600" width="900" height="600" xmlns="http://www.w3.org/2000/svg" xmlns:xlink="http://www.w3.org/1999/xlink" version="1.1"><rect width="900" height="600" fill="#0c0b0b"></rect><g><g transform="translate(654 133)"><path d="M51.6 -60C67.1 -48.6 79.9 -32.5 83.9 -14.1C87.9 4.2 83.1 24.7 72.6 40.9C62 57.2 45.8 69.2 27.6 75.7C9.4 82.2 -10.6 83.3 -29.1 77.7C-47.6 72 -64.5 59.5 -74.2 42.8C-83.9 26.1 -86.4 5.2 -82.1 -13.7C-77.9 -32.6 -66.8 -49.6 -52 -61.1C-37.2 -72.7 -18.6 -78.8 -0.3 -78.5C18.1 -78.2 36.2 -71.4 51.6 -60Z" fill="none" stroke="#310101" stroke-width="20"></path></g><g transform="translate(95 240)"><path d="M52.1 -62.8C65.8 -50.6 74 -32.5 76.4 -14.2C78.7 4.1 75.1 22.7 66.6 39.3C58.1 56 44.5 70.6 27.3 78.3C10 86.1 -11 87 -28.7 80C-46.5 73.1 -61 58.3 -70.7 41C-80.4 23.7 -85.3 3.9 -81.6 -13.9C-77.9 -31.8 -65.6 -47.6 -50.6 -59.6C-35.5 -71.6 -17.8 -79.8 0.7 -80.6C19.2 -81.5 38.4 -75 52.1 -62.8Z" fill="none" stroke="#310101" stroke-width="20"></path></g><g transform="translate(833 456)"><path d="M51.1 -60.8C64.7 -49.5 73.2 -31.9 76.2 -13.6C79.3 4.7 76.9 23.9 68.2 39.7C59.4 55.5 44.4 68 26.7 75.3C9 82.6 -11.3 84.6 -28.7 78.4C-46.1 72.3 -60.6 57.8 -69.5 40.9C-78.4 23.9 -81.7 4.5 -79.1 -14.7C-76.6 -33.8 -68.3 -52.7 -54.2 -64C-40 -75.2 -20 -78.9 -0.6 -78.1C18.7 -77.4 37.5 -72.2 51.1 -60.8Z" fill="none" stroke="#310101" stroke-width="20"></path></g><g transform="translate(304 172)"><path d="M50.5 -60C64.8 -48.1 75.5 -31.6 78.3 -14C81.2 3.6 76.3 22.4 67 38.8C57.7 55.3 44 69.3 27.1 76.2C10.2 83 -9.9 82.7 -27.6 76.1C-45.4 69.6 -60.8 56.8 -71.1 40.4C-81.5 24 -86.7 3.9 -83.8 -15.2C-80.9 -34.2 -69.9 -52.2 -54.6 -64C-39.3 -75.7 -19.6 -81.1 -0.8 -80.1C18.1 -79.2 36.1 -71.9 50.5 -60Z" stroke="#310101" fill="none" stroke-width="20"></path></g><g transform="translate(113 433)"><path d="M50.8 -60.4C65.9 -47.8 78.2 -31.9 82.5 -13.6C86.8 4.6 83 25.2 73.2 42.4C63.4 59.5 47.5 73.3 29.6 78.6C11.6 84 -8.4 81 -27.2 74.3C-46 67.7 -63.7 57.3 -73.6 41.7C-83.6 26.1 -85.9 5.3 -81.3 -13.2C-76.7 -31.7 -65.3 -47.9 -50.6 -60.6C-35.9 -73.2 -17.9 -82.3 -0.1 -82.2C17.8 -82.2 35.7 -73 50.8 -60.4Z" stroke="#310101" fill="none" stroke-width="20"></path></g><g transform="translate(24 46)"><path d="M50.6 -58.9C65.5 -47.8 77.4 -31.8 81.1 -13.8C84.8 4.1 80.3 23.9 70.4 40.2C60.5 56.4 45.1 69 27.7 74.9C10.2 80.7 -9.2 79.7 -27.3 73.7C-45.4 67.7 -62.1 56.6 -72 40.9C-82 25.2 -85.1 4.8 -81.3 -13.9C-77.5 -32.6 -66.8 -49.7 -52.1 -60.9C-37.4 -72 -18.7 -77.2 -0.4 -76.8C17.9 -76.3 35.7 -70.1 50.6 -58.9Z" stroke="#310101" fill="none" stroke-width="20"></path></g><g transform="translate(680 569)"><path d="M52.3 -62.5C66.3 -50.5 75.2 -32.7 77.8 -14.2C80.5 4.2 76.8 23.2 67.7 39C58.5 54.9 43.8 67.5 26.9 73.5C9.9 79.5 -9.3 79 -27.2 73.1C-45 67.3 -61.5 56.2 -71 40.6C-80.4 25 -82.8 5 -79.1 -13.5C-75.3 -32.1 -65.4 -49.1 -51.2 -61.1C-37 -73.1 -18.5 -80.1 0.3 -80.4C19.1 -80.8 38.2 -74.6 52.3 -62.5Z" stroke="#310101" fill="none" stroke-width="20"></path></g><g transform="translate(302 576)"><path d="M50.8 -61.2C65.5 -48.2 76.9 -31.9 80.1 -14.1C83.2 3.7 78.2 22.9 68.4 39.1C58.6 55.2 44.1 68.2 27.1 74.3C10.1 80.4 -9.3 79.6 -27.7 73.9C-46.2 68.2 -63.6 57.5 -73.1 41.8C-82.6 26.2 -84.1 5.5 -79.7 -13.1C-75.3 -31.8 -65 -48.5 -50.7 -61.6C-36.5 -74.6 -18.2 -84.1 -0.1 -84C18 -83.9 36.1 -74.2 50.8 -61.2Z" stroke="#310101" fill="none" stroke-width="20"></path></g><g transform="translate(445 417)"><path d="M55.2 -64.5C70.5 -52.9 81.3 -34.6 84.9 -14.9C88.4 4.8 84.7 25.8 74.7 43C64.6 60.3 48.2 73.8 29.8 79.4C11.5 84.9 -8.9 82.6 -26.7 75.3C-44.5 67.9 -59.9 55.7 -69.9 39.7C-79.8 23.7 -84.4 4 -81.4 -14.5C-78.3 -33.1 -67.6 -50.4 -52.7 -62.1C-37.9 -73.8 -19 -79.9 0.5 -80.5C19.9 -81 39.8 -76.1 55.2 -64.5Z" stroke="#310101" fill="none" stroke-width="20"></path></g><g transform="translate(876 84)"><path d="M52.4 -63.4C66.6 -50.5 75.9 -32.8 79.2 -13.9C82.6 4.9 80.1 24.9 71 41.2C61.8 57.6 46 70.3 27.9 77.1C9.8 83.8 -10.6 84.6 -28.6 78.2C-46.7 71.9 -62.3 58.4 -71.6 41.6C-80.9 24.8 -84 4.7 -79.9 -13.4C-75.9 -31.5 -64.7 -47.7 -50.2 -60.5C-35.7 -73.2 -17.9 -82.6 0.6 -83.4C19.1 -84.1 38.2 -76.2 52.4 -63.4Z" stroke="#310101" fill="none" stroke-width="20"></path></g><g transform="translate(626 337)"><path d="M50 -59C64.2 -47.7 74.7 -31.4 78.8 -13.1C83 5.1 80.7 25.2 71.3 41C62 56.8 45.5 68.3 27.4 74.7C9.2 81.1 -10.6 82.4 -28.1 76.3C-45.5 70.3 -60.6 57 -69.4 40.6C-78.2 24.2 -80.8 4.7 -77.9 -14.1C-75 -32.9 -66.5 -51.1 -52.6 -62.5C-38.7 -73.9 -19.4 -78.5 -0.7 -77.6C17.9 -76.8 35.8 -70.4 50 -59Z" stroke="#310101" fill="none" stroke-width="20"></path></g><g transform="translate(441 19)"><path d="M53.7 -64.2C68.9 -51.3 79.8 -33.7 83 -14.7C86.3 4.2 81.8 24.4 71.5 40.5C61.2 56.5 45.2 68.4 27.3 74.8C9.4 81.3 -10.4 82.2 -27.8 76.1C-45.3 69.9 -60.3 56.7 -70.3 40.2C-80.4 23.6 -85.6 3.8 -82.2 -14.3C-78.8 -32.4 -66.7 -48.8 -51.6 -61.6C-36.4 -74.5 -18.2 -83.9 0.5 -84.5C19.3 -85.2 38.6 -77.1 53.7 -64.2Z" stroke="#310101" fill="none" stroke-width="20"></path></g></g></svg>